<?xml version="1.0" standalone="no"?>
<!DOCTYPE svg PUBLIC "-//W3C//DTD SVG 20010904//EN"
 "http://www.w3.org/TR/2001/REC-SVG-20010904/DTD/svg10.dtd">
<svg version="1.0" xmlns="http://www.w3.org/2000/svg"
 width="400.000000pt" height="400.000000pt" viewBox="0 0 400.000000 400.000000"
 preserveAspectRatio="xMidYMid meet">
<metadata>
Created by potrace 1.11, written by Peter Selinger 2001-2013
</metadata>
<g transform="translate(0.000000,400.000000) scale(0.100000,-0.100000)"
fill="#000000" stroke="none">
<path d="M375 3976 c-59 -27 -119 -90 -147 -154 -21 -50 -21 -89 1 -307 9 -95
30 -322 51 -557 15 -169 29 -313 40 -433 17 -187 52 -573 70 -772 5 -60 16
-187 25 -283 15 -165 24 -259 45 -495 29 -315 40 -358 114 -423 45 -39 33 -34
466 -200 201 -78 484 -187 630 -243 334 -130 329 -129 540 -47 226 87 965 372
1060 408 216 81 242 125 270 450 11 126 16 181 45 500 9 96 20 223 25 282 13
145 27 300 40 433 10 112 33 365 50 558 30 330 61 666 70 767 6 52 13 147 16
210 6 111 6 117 -19 166 -28 56 -119 144 -147 144 -11 0 -22 5 -25 10 -4 7
-544 10 -1588 9 l-1582 0 -50 -23z m3165 -231 c13 -16 13 -22 -49 -710 -6 -60
-15 -159 -21 -220 -18 -200 -41 -448 -50 -560 -10 -114 -18 -196 -45 -495 -27
-299 -35 -381 -45 -495 -25 -293 -40 -454 -46 -491 l-6 -42 -221 -85 c-122
-47 -359 -138 -527 -202 -168 -64 -314 -120 -325 -125 -11 -4 -51 -20 -90 -35
-38 -15 -78 -31 -89 -37 -12 -6 -28 -6 -50 2 -44 17 -157 61 -181 70 -34 14
-803 310 -930 358 -66 25 -125 50 -131 56 -6 6 -19 92 -28 191 -22 239 -34
379 -46 500 -14 141 -29 308 -35 390 -3 39 -10 115 -15 170 -5 55 -14 150 -19
210 -6 61 -15 160 -21 220 -5 61 -17 187 -25 280 -8 94 -19 217 -25 275 -20
222 -30 331 -45 495 -8 94 -17 191 -19 217 -9 86 -163 78 1548 78 1338 0 1525
-2 1536 -15z"/>
<path d="M1348 2949 c-65 -39 -73 -75 -69 -284 3 -99 5 -209 5 -244 l1 -64
-90 -77 c-91 -78 -135 -135 -135 -179 0 -45 40 -108 98 -156 31 -26 74 -63 96
-82 l38 -35 -12 -202 c-17 -293 -1 -358 102 -392 43 -14 73 -16 172 -11 224
12 272 29 296 103 9 27 7 40 -10 77 -34 71 -46 74 -285 63 l-30 -1 -1 180 c-3
284 -1 267 -34 316 -16 24 -52 62 -79 84 -28 22 -50 45 -51 51 0 5 25 31 55
58 30 26 67 67 81 92 l27 46 -2 221 -2 220 119 -7 c113 -6 120 -5 153 17 58
39 75 102 42 158 -32 54 -69 63 -268 66 -171 4 -182 3 -217 -18z"/>
<path d="M2265 2959 c-39 -6 -57 -16 -84 -45 -30 -33 -33 -41 -28 -81 5 -48
32 -84 76 -103 18 -7 63 -8 142 -3 l116 8 -1 -225 -1 -225 27 -46 c15 -25 49
-63 75 -85 26 -21 51 -43 55 -48 4 -6 -26 -42 -67 -81 -97 -92 -99 -102 -92
-357 4 -144 2 -198 -6 -201 -7 -2 -54 -1 -105 3 -109 9 -148 1 -186 -39 -23
-24 -28 -38 -28 -75 1 -56 15 -78 64 -106 36 -20 55 -22 216 -23 272 -3 287
10 287 253 0 80 -2 192 -4 250 l-4 105 89 76 c109 93 134 127 134 186 0 60
-32 104 -138 190 l-87 71 8 148 c12 223 6 351 -18 393 -34 57 -83 71 -248 70
-78 -1 -164 -5 -192 -10z"/>
<path d="M1730 2065 l0 -435 55 0 55 0 0 155 0 155 158 0 c150 0 161 1 210 26
93 46 145 135 146 249 1 115 -56 209 -156 259 -51 25 -57 26 -260 26 l-208 0
0 -435z m433 305 c100 -67 102 -231 4 -304 -25 -19 -45 -21 -178 -24 l-149 -4
0 182 0 182 143 -4 c134 -3 146 -5 180 -28z"/>
</g>
</svg>
